<mxfile host="app.diagrams.net" modified="2023-01-08T12:00:01.106Z" agent="5.0 (Windows NT 10.0; Win64; x64) AppleWebKit/537.36 (KHTML, like Gecko) Chrome/108.0.0.0 Safari/537.36" etag="83B5ZmjHqk5JTNBKtw7k" version="20.7.4" type="github">
  <diagram id="C5RBs43oDa-KdzZeNtuy" name="Page-1">
    <mxGraphModel dx="1434" dy="796" grid="1" gridSize="10" guides="1" tooltips="1" connect="1" arrows="1" fold="1" page="1" pageScale="1" pageWidth="827" pageHeight="1169" math="0" shadow="0">
      <root>
        <mxCell id="WIyWlLk6GJQsqaUBKTNV-0" />
        <mxCell id="WIyWlLk6GJQsqaUBKTNV-1" parent="WIyWlLk6GJQsqaUBKTNV-0" />
        <mxCell id="T3RZyvHkpdusLL4GOL5Q-8" value="&lt;p style=&quot;margin: 4px 0px 0px; text-align: center; line-height: 100%;&quot;&gt;&amp;lt;&amp;lt;entity&amp;gt;&amp;gt;&lt;/p&gt;&lt;p style=&quot;margin: 4px 0px 0px; text-align: center; line-height: 100%;&quot;&gt;&lt;b&gt;Amministratore&lt;/b&gt;&lt;/p&gt;&lt;hr style=&quot;line-height: 100%;&quot; size=&quot;1&quot;&gt;&lt;p style=&quot;margin: 0px 0px 0px 4px; line-height: 100%;&quot;&gt;-email: String&lt;/p&gt;&lt;p style=&quot;margin: 0px 0px 0px 4px; line-height: 100%;&quot;&gt;-nomeUtente: String&lt;/p&gt;&lt;p style=&quot;margin: 0px 0px 0px 4px; line-height: 100%;&quot;&gt;-password: String&lt;/p&gt;&lt;hr style=&quot;line-height: 100%;&quot; size=&quot;1&quot;&gt;&lt;p style=&quot;margin: 0px 0px 0px 4px; line-height: 100%;&quot;&gt;+getEmail(): String&lt;/p&gt;&lt;p style=&quot;margin: 0px 0px 0px 4px; line-height: 100%;&quot;&gt;+getNomeUtente(): String&lt;/p&gt;&lt;p style=&quot;margin: 0px 0px 0px 4px; line-height: 100%;&quot;&gt;+getPassword(): String&lt;/p&gt;&lt;p style=&quot;margin: 0px 0px 0px 4px; line-height: 100%;&quot;&gt;+getRuolo(): String&lt;/p&gt;&lt;p style=&quot;margin: 0px 0px 0px 4px; line-height: 100%;&quot;&gt;+setEmail(): void&lt;/p&gt;&lt;p style=&quot;margin: 0px 0px 0px 4px; line-height: 100%;&quot;&gt;+setNomeUtente(): void&lt;/p&gt;&lt;p style=&quot;margin: 0px 0px 0px 4px; line-height: 100%;&quot;&gt;+setPassword(): void&lt;/p&gt;" style="verticalAlign=top;align=left;overflow=fill;fontSize=12;fontFamily=Helvetica;html=1;" vertex="1" parent="WIyWlLk6GJQsqaUBKTNV-1">
          <mxGeometry x="490" y="40" width="146" height="190" as="geometry" />
        </mxCell>
        <mxCell id="T3RZyvHkpdusLL4GOL5Q-9" value="&lt;p style=&quot;margin: 4px 0px 0px; text-align: center; line-height: 100%;&quot;&gt;&amp;lt;&amp;lt;boundary&amp;gt;&amp;gt;&lt;/p&gt;&lt;p style=&quot;margin: 4px 0px 0px; text-align: center; line-height: 100%;&quot;&gt;&lt;b&gt;FramePersonalizzaMenù&lt;/b&gt;&lt;/p&gt;&lt;hr size=&quot;1&quot;&gt;&lt;p style=&quot;margin:0px;margin-left:4px;&quot;&gt;-aggiungiProdottoButton: Button&lt;/p&gt;&lt;p style=&quot;margin:0px;margin-left:4px;&quot;&gt;-modificaProdottoButton: Button&lt;/p&gt;&lt;p style=&quot;margin:0px;margin-left:4px;&quot;&gt;-aggiungiSezioneButton: Button&lt;/p&gt;&lt;p style=&quot;margin:0px;margin-left:4px;&quot;&gt;-modificaSezioneButton: Button&lt;/p&gt;&lt;p style=&quot;margin:0px;margin-left:4px;&quot;&gt;-tipologiaSezioneTextView: TextView&lt;/p&gt;&lt;p style=&quot;margin:0px;margin-left:4px;&quot;&gt;&lt;span style=&quot;background-color: initial;&quot;&gt;-adminSearchDialog: SearchDialog&lt;/span&gt;&lt;/p&gt;&lt;p style=&quot;margin:0px;margin-left:4px;&quot;&gt;-adminNavigationBar: NavigationBar&lt;/p&gt;&lt;hr size=&quot;1&quot;&gt;&lt;p style=&quot;margin:0px;margin-left:4px;&quot;&gt;+onClickAggiungiProdottoButton()&lt;/p&gt;&lt;p style=&quot;margin:0px;margin-left:4px;&quot;&gt;+onClickModificaProdottoButton()&lt;br&gt;&lt;/p&gt;&lt;p style=&quot;margin:0px;margin-left:4px;&quot;&gt;+onClickAggiungiSezioneButton()&lt;br&gt;&lt;/p&gt;&lt;p style=&quot;margin:0px;margin-left:4px;&quot;&gt;+onClickModificaSezioneButton()&lt;br&gt;&lt;/p&gt;&lt;p style=&quot;margin:0px;margin-left:4px;&quot;&gt;+onClickNavigationBar()&lt;/p&gt;" style="verticalAlign=top;align=left;overflow=fill;fontSize=12;fontFamily=Helvetica;html=1;spacing=2;" vertex="1" parent="WIyWlLk6GJQsqaUBKTNV-1">
          <mxGeometry x="20" y="880" width="220" height="242.5" as="geometry" />
        </mxCell>
        <mxCell id="T3RZyvHkpdusLL4GOL5Q-12" value="&lt;p style=&quot;margin: 4px 0px 0px; text-align: center; line-height: 100%;&quot;&gt;&amp;lt;&amp;lt;control&amp;gt;&amp;gt;&lt;/p&gt;&lt;p style=&quot;margin: 4px 0px 0px; text-align: center; line-height: 100%;&quot;&gt;&lt;b&gt;Controller&lt;/b&gt;&lt;/p&gt;&lt;hr size=&quot;1&quot;&gt;&lt;p style=&quot;margin: 0px 0px 0px 4px; line-height: 100%;&quot;&gt;&lt;br&gt;&lt;/p&gt;&lt;hr size=&quot;1&quot;&gt;&lt;p style=&quot;margin: 0px 0px 0px 4px; line-height: 100%;&quot;&gt;+mostraFramePersonalizzaMenù()&lt;/p&gt;&lt;p style=&quot;margin: 0px 0px 0px 4px; line-height: 100%;&quot;&gt;+mostraFrameModificaProdotto()&lt;/p&gt;&lt;p style=&quot;margin: 0px 0px 0px 4px; line-height: 100%;&quot;&gt;+mostraFrameAggiungiProdotto()&lt;/p&gt;&lt;p style=&quot;margin: 0px 0px 0px 4px; line-height: 100%;&quot;&gt;+mostraFrameAggiungiSezione()&lt;/p&gt;&lt;p style=&quot;margin: 0px 0px 0px 4px; line-height: 100%;&quot;&gt;+mostraFrameModificaSezione()&lt;/p&gt;" style="verticalAlign=top;align=left;overflow=fill;fontSize=12;fontFamily=Helvetica;html=1;" vertex="1" parent="WIyWlLk6GJQsqaUBKTNV-1">
          <mxGeometry x="279" y="370" width="270" height="140" as="geometry" />
        </mxCell>
        <mxCell id="T3RZyvHkpdusLL4GOL5Q-17" value="&lt;p style=&quot;margin: 4px 0px 0px; text-align: center; line-height: 100%;&quot;&gt;&amp;lt;&amp;lt;boundary&amp;gt;&amp;gt;&lt;/p&gt;&lt;p style=&quot;margin: 4px 0px 0px; text-align: center; line-height: 100%;&quot;&gt;&lt;b&gt;FrameModificaProdotto&lt;/b&gt;&lt;/p&gt;&lt;hr size=&quot;1&quot;&gt;&lt;p style=&quot;margin:0px;margin-left:4px;&quot;&gt;-nomeProdottoTextView: TextView&lt;/p&gt;&lt;p style=&quot;margin:0px;margin-left:4px;&quot;&gt;-selezionaTipologiaProdottoTextView: TextView&lt;br&gt;&lt;/p&gt;&lt;p style=&quot;margin:0px;margin-left:4px;&quot;&gt;-nomeProdottoEditText: EditText&lt;/p&gt;&lt;p style=&quot;margin:0px;margin-left:4px;&quot;&gt;-nomeProdottoSecondaLinguaEditText: EditText&lt;/p&gt;&lt;p style=&quot;margin:0px;margin-left:4px;&quot;&gt;-costoEditText: EditText&lt;/p&gt;&lt;p style=&quot;margin:0px;margin-left:4px;&quot;&gt;-ingreditentiEditText: EditText&lt;/p&gt;&lt;p style=&quot;margin:0px;margin-left:4px;&quot;&gt;-ingredientiSecondaLinguaEditText: EditText&lt;/p&gt;&lt;p style=&quot;margin:0px;margin-left:4px;&quot;&gt;-selezionaTipologiaProdottoSpinner: Spinner&lt;/p&gt;&lt;p style=&quot;margin:0px;margin-left:4px;&quot;&gt;-salvaModificheButton: Button&lt;/p&gt;&lt;p style=&quot;margin:0px;margin-left:4px;&quot;&gt;-adminNavigationBar: NavigationBar&lt;/p&gt;&lt;hr&gt;&lt;p style=&quot;margin:0px;margin-left:4px;&quot;&gt;+onClickSalvaModificheButton()&lt;/p&gt;&lt;p style=&quot;margin:0px;margin-left:4px;&quot;&gt;+onClickNavigationBar()&lt;/p&gt;" style="verticalAlign=top;align=left;overflow=fill;fontSize=12;fontFamily=Helvetica;html=1;spacing=2;" vertex="1" parent="WIyWlLk6GJQsqaUBKTNV-1">
          <mxGeometry x="257" y="880" width="270" height="242.5" as="geometry" />
        </mxCell>
        <mxCell id="T3RZyvHkpdusLL4GOL5Q-19" value="&lt;p style=&quot;margin: 4px 0px 0px; text-align: center; line-height: 100%;&quot;&gt;&amp;lt;&amp;lt;boundary&amp;gt;&amp;gt;&lt;/p&gt;&lt;p style=&quot;margin: 4px 0px 0px; text-align: center; line-height: 100%;&quot;&gt;&lt;b&gt;FrameAggiungiProdotto&lt;/b&gt;&lt;/p&gt;&lt;hr size=&quot;1&quot;&gt;&lt;p style=&quot;margin:0px;margin-left:4px;&quot;&gt;-nomeProdottoTextView: TextView&lt;/p&gt;&lt;p style=&quot;margin:0px;margin-left:4px;&quot;&gt;-selezionaTipologiaProdottoTextView: TextView&lt;br&gt;&lt;/p&gt;&lt;p style=&quot;margin:0px;margin-left:4px;&quot;&gt;-nomeProdottoEditText: EditText&lt;/p&gt;&lt;p style=&quot;margin:0px;margin-left:4px;&quot;&gt;-nomeProdottoSecondaLinguaEditText: EditText&lt;/p&gt;&lt;p style=&quot;margin:0px;margin-left:4px;&quot;&gt;-costoEditText: EditText&lt;/p&gt;&lt;p style=&quot;margin:0px;margin-left:4px;&quot;&gt;-ingreditentiEditText: EditText&lt;/p&gt;&lt;p style=&quot;margin:0px;margin-left:4px;&quot;&gt;-ingredientiSecondaLinguaEditText: EditText&lt;/p&gt;&lt;p style=&quot;margin:0px;margin-left:4px;&quot;&gt;-selezionaTipologiaProdottoSpinner: Spinner&lt;/p&gt;&lt;p style=&quot;margin:0px;margin-left:4px;&quot;&gt;-aggiungiProdottoButton: Button&lt;/p&gt;&lt;p style=&quot;margin:0px;margin-left:4px;&quot;&gt;-adminNavigationBar: NavigationBar&lt;/p&gt;&lt;hr&gt;&lt;p style=&quot;margin:0px;margin-left:4px;&quot;&gt;+onClickAggiungiProdottoButton()&lt;/p&gt;&lt;p style=&quot;margin:0px;margin-left:4px;&quot;&gt;+onClickNavigationBar()&lt;/p&gt;" style="verticalAlign=top;align=left;overflow=fill;fontSize=12;fontFamily=Helvetica;html=1;spacing=2;" vertex="1" parent="WIyWlLk6GJQsqaUBKTNV-1">
          <mxGeometry x="540" y="880" width="270" height="242.5" as="geometry" />
        </mxCell>
        <mxCell id="T3RZyvHkpdusLL4GOL5Q-20" value="&lt;p style=&quot;margin: 4px 0px 0px; text-align: center; line-height: 100%;&quot;&gt;&amp;lt;&amp;lt;boundary&amp;gt;&amp;gt;&lt;/p&gt;&lt;p style=&quot;margin: 4px 0px 0px; text-align: center; line-height: 100%;&quot;&gt;&lt;b&gt;FrameModificaSezione&lt;/b&gt;&lt;/p&gt;&lt;hr size=&quot;1&quot;&gt;&lt;p style=&quot;margin:0px;margin-left:4px;&quot;&gt;-selezionaOrdineSezioniTextView: TextView&lt;/p&gt;&lt;p style=&quot;margin:0px;margin-left:4px;&quot;&gt;-selezionaOrdineSezioniSpinner: Spinner&lt;/p&gt;&lt;p style=&quot;margin:0px;margin-left:4px;&quot;&gt;-salvaModificheButton: Button&lt;/p&gt;&lt;p style=&quot;margin:0px;margin-left:4px;&quot;&gt;-adminNavigationBar: NavigationBar&lt;/p&gt;&lt;hr&gt;&lt;p style=&quot;margin:0px;margin-left:4px;&quot;&gt;+onClickSalvaModificheButton()&lt;/p&gt;&lt;p style=&quot;margin:0px;margin-left:4px;&quot;&gt;+onClickNavigationBar()&lt;/p&gt;" style="verticalAlign=top;align=left;overflow=fill;fontSize=12;fontFamily=Helvetica;html=1;spacing=2;" vertex="1" parent="WIyWlLk6GJQsqaUBKTNV-1">
          <mxGeometry x="9" y="630" width="270" height="150" as="geometry" />
        </mxCell>
        <mxCell id="T3RZyvHkpdusLL4GOL5Q-21" value="&lt;p style=&quot;margin: 4px 0px 0px; text-align: center; line-height: 100%;&quot;&gt;&amp;lt;&amp;lt;boundary&amp;gt;&amp;gt;&lt;/p&gt;&lt;p style=&quot;margin: 4px 0px 0px; text-align: center; line-height: 100%;&quot;&gt;&lt;b&gt;FrameAggiungiSezione&lt;/b&gt;&lt;/p&gt;&lt;hr size=&quot;1&quot;&gt;&lt;p style=&quot;margin:0px;margin-left:4px;&quot;&gt;-aggiungiSezioneTextView: TextView&lt;/p&gt;&lt;p style=&quot;margin:0px;margin-left:4px;&quot;&gt;-nuovaSezioneEditText: EditText&lt;/p&gt;&lt;p style=&quot;margin:0px;margin-left:4px;&quot;&gt;-salvaModificheButton: Button&lt;/p&gt;&lt;p style=&quot;margin:0px;margin-left:4px;&quot;&gt;-adminNavigationBar: NavigationBar&lt;/p&gt;&lt;hr&gt;&lt;p style=&quot;margin:0px;margin-left:4px;&quot;&gt;+onClickSalvaModificheButton()&lt;/p&gt;&lt;p style=&quot;margin:0px;margin-left:4px;&quot;&gt;+onClickNavigationBar()&lt;/p&gt;" style="verticalAlign=top;align=left;overflow=fill;fontSize=12;fontFamily=Helvetica;html=1;spacing=2;" vertex="1" parent="WIyWlLk6GJQsqaUBKTNV-1">
          <mxGeometry x="549" y="630" width="270" height="150" as="geometry" />
        </mxCell>
        <mxCell id="T3RZyvHkpdusLL4GOL5Q-22" value="&lt;p style=&quot;margin: 4px 0px 0px; text-align: center; line-height: 100%;&quot;&gt;&amp;lt;&amp;lt;entity&amp;gt;&amp;gt;&lt;/p&gt;&lt;p style=&quot;margin: 4px 0px 0px; text-align: center; line-height: 100%;&quot;&gt;&lt;b&gt;Supervisore&lt;/b&gt;&lt;/p&gt;&lt;hr style=&quot;line-height: 100%;&quot; size=&quot;1&quot;&gt;&lt;p style=&quot;margin: 0px 0px 0px 4px; line-height: 100%;&quot;&gt;-email: String&lt;/p&gt;&lt;p style=&quot;margin: 0px 0px 0px 4px; line-height: 100%;&quot;&gt;-nomeUtente: String&lt;/p&gt;&lt;p style=&quot;margin: 0px 0px 0px 4px; line-height: 100%;&quot;&gt;-password: String&lt;/p&gt;&lt;hr style=&quot;line-height: 100%;&quot; size=&quot;1&quot;&gt;&lt;p style=&quot;margin: 0px 0px 0px 4px; line-height: 100%;&quot;&gt;+getEmail(): String&lt;/p&gt;&lt;p style=&quot;margin: 0px 0px 0px 4px; line-height: 100%;&quot;&gt;+getNomeUtente(): String&lt;/p&gt;&lt;p style=&quot;margin: 0px 0px 0px 4px; line-height: 100%;&quot;&gt;+getPassword(): String&lt;/p&gt;&lt;p style=&quot;margin: 0px 0px 0px 4px; line-height: 100%;&quot;&gt;+getRuolo(): String&lt;/p&gt;&lt;p style=&quot;margin: 0px 0px 0px 4px; line-height: 100%;&quot;&gt;+setEmail(): void&lt;/p&gt;&lt;p style=&quot;margin: 0px 0px 0px 4px; line-height: 100%;&quot;&gt;+setNomeUtente(): void&lt;/p&gt;&lt;p style=&quot;margin: 0px 0px 0px 4px; line-height: 100%;&quot;&gt;+setPassword(): void&lt;/p&gt;" style="verticalAlign=top;align=left;overflow=fill;fontSize=12;fontFamily=Helvetica;html=1;" vertex="1" parent="WIyWlLk6GJQsqaUBKTNV-1">
          <mxGeometry x="160" y="40" width="146" height="190" as="geometry" />
        </mxCell>
        <mxCell id="T3RZyvHkpdusLL4GOL5Q-23" value="" style="endArrow=none;html=1;rounded=0;entryX=0.5;entryY=1;entryDx=0;entryDy=0;exitX=0.107;exitY=-0.007;exitDx=0;exitDy=0;exitPerimeter=0;" edge="1" parent="WIyWlLk6GJQsqaUBKTNV-1" source="T3RZyvHkpdusLL4GOL5Q-12" target="T3RZyvHkpdusLL4GOL5Q-22">
          <mxGeometry width="50" height="50" relative="1" as="geometry">
            <mxPoint x="360" y="310" as="sourcePoint" />
            <mxPoint x="230" y="240" as="targetPoint" />
            <Array as="points">
              <mxPoint x="308" y="310" />
              <mxPoint x="233" y="310" />
            </Array>
          </mxGeometry>
        </mxCell>
        <mxCell id="T3RZyvHkpdusLL4GOL5Q-24" value="" style="endArrow=none;html=1;rounded=0;" edge="1" parent="WIyWlLk6GJQsqaUBKTNV-1">
          <mxGeometry width="50" height="50" relative="1" as="geometry">
            <mxPoint x="490" y="370" as="sourcePoint" />
            <mxPoint x="570" y="230" as="targetPoint" />
            <Array as="points">
              <mxPoint x="490" y="310" />
              <mxPoint x="570" y="310" />
            </Array>
          </mxGeometry>
        </mxCell>
        <mxCell id="T3RZyvHkpdusLL4GOL5Q-25" value="" style="endArrow=none;html=1;rounded=0;exitX=0.5;exitY=0;exitDx=0;exitDy=0;entryX=1;entryY=0.5;entryDx=0;entryDy=0;" edge="1" parent="WIyWlLk6GJQsqaUBKTNV-1" source="T3RZyvHkpdusLL4GOL5Q-21" target="T3RZyvHkpdusLL4GOL5Q-12">
          <mxGeometry width="50" height="50" relative="1" as="geometry">
            <mxPoint x="390" y="610" as="sourcePoint" />
            <mxPoint x="590" y="430" as="targetPoint" />
            <Array as="points">
              <mxPoint x="684" y="440" />
            </Array>
          </mxGeometry>
        </mxCell>
        <mxCell id="T3RZyvHkpdusLL4GOL5Q-26" value="" style="endArrow=none;html=1;rounded=0;entryX=0;entryY=0.5;entryDx=0;entryDy=0;" edge="1" parent="WIyWlLk6GJQsqaUBKTNV-1" target="T3RZyvHkpdusLL4GOL5Q-12">
          <mxGeometry width="50" height="50" relative="1" as="geometry">
            <mxPoint x="135" y="630" as="sourcePoint" />
            <mxPoint x="440" y="560" as="targetPoint" />
            <Array as="points">
              <mxPoint x="135" y="440" />
            </Array>
          </mxGeometry>
        </mxCell>
        <mxCell id="T3RZyvHkpdusLL4GOL5Q-27" value="" style="endArrow=none;html=1;rounded=0;" edge="1" parent="WIyWlLk6GJQsqaUBKTNV-1">
          <mxGeometry width="50" height="50" relative="1" as="geometry">
            <mxPoint x="123" y="880" as="sourcePoint" />
            <mxPoint x="328" y="510" as="targetPoint" />
            <Array as="points">
              <mxPoint x="123" y="830" />
              <mxPoint x="328" y="830" />
            </Array>
          </mxGeometry>
        </mxCell>
        <mxCell id="T3RZyvHkpdusLL4GOL5Q-28" value="" style="endArrow=none;html=1;rounded=0;exitX=0.53;exitY=-0.004;exitDx=0;exitDy=0;exitPerimeter=0;" edge="1" parent="WIyWlLk6GJQsqaUBKTNV-1" source="T3RZyvHkpdusLL4GOL5Q-17">
          <mxGeometry width="50" height="50" relative="1" as="geometry">
            <mxPoint x="400" y="870" as="sourcePoint" />
            <mxPoint x="400" y="510" as="targetPoint" />
          </mxGeometry>
        </mxCell>
        <mxCell id="T3RZyvHkpdusLL4GOL5Q-30" value="" style="endArrow=none;html=1;rounded=0;exitX=0.5;exitY=0;exitDx=0;exitDy=0;entryX=0.815;entryY=1.007;entryDx=0;entryDy=0;entryPerimeter=0;" edge="1" parent="WIyWlLk6GJQsqaUBKTNV-1" source="T3RZyvHkpdusLL4GOL5Q-19" target="T3RZyvHkpdusLL4GOL5Q-12">
          <mxGeometry width="50" height="50" relative="1" as="geometry">
            <mxPoint x="390" y="740" as="sourcePoint" />
            <mxPoint x="440" y="690" as="targetPoint" />
            <Array as="points">
              <mxPoint x="675" y="830" />
              <mxPoint x="500" y="830" />
            </Array>
          </mxGeometry>
        </mxCell>
      </root>
    </mxGraphModel>
  </diagram>
</mxfile>
